# xmcd CD database file
#
# Track frame offsets:
#	182
#	16482
#	29909
#	42371
#	55339
#	69649
#	83889
#	98932
#	112524
#	126003
#	140238
#	155083
#	167081
#	180208
#	192062
#	205184
#	216469
#	227356
#
# Disc length: 3218 seconds
#
# Revision: 0
# Processed by: cddbd v1.5.1PL0 Copyright (c) Steve Scherf et al.
# Submitted via: CDex 1.51
#
DISCID=fc0c9012
DTITLE=Various Artist - Country Gospel - 1929-1946 - CD 1
DYEAR=1929
DGENRE=Country
TTITLE0=Carter Family - Motherless Children
TTITLE1=Alabama Sacred Harp Singers - Present Joys
TTITLE2=Alabama Sacred Harp Singers - Rocky Road
TTITLE3=Jimmie Davis - There's Evil In Ye Children
TTITLE4=Grayson and Whitter  - You'll Never Miss Your Mother
TTITLE5=Carter Family - On The Rock Where Moses Stood
TTITLE6=Reverend G.P. Harris - I'll Lead A Christian Life
TTITLE7=Bascom Lamar Lunsford - Dry Bones
TTITLE8=Alfred G. Karnes  We Shall All Be Reunited
TTITLE9=Ernest Phipps and Holiness Quartet - Old Time Religion
TTITLE10=Carter Family - No Telephone In Heaven
TTITLE11=Wade Mainer - Mother Came To Get Her Boy From Jail
TTITLE12=Wade Mainer - What Would You Give In Exchange For Your Soul
TTITLE13=Monroe Brothers - God Holds The Future In His Hands
TTITLE14=Monroe Brothers - The Saints Go Marching In
TTITLE15=Dixin Brothers - Shining City Over The River
TTITLE16=Delmore Brothers - In The Vine Covered Chapel
TTITLE17=Delmore Brothers - Heavently Light Is Shining On Me
EXTD=YEAR: 1929
EXTT0=
EXTT1=
EXTT2=
EXTT3=
EXTT4=
EXTT5=
EXTT6=
EXTT7=
EXTT8=
EXTT9=
EXTT10=
EXTT11=
EXTT12=
EXTT13=
EXTT14=
EXTT15=
EXTT16=
EXTT17=
PLAYORDER=
